<svg xmlns="http://www.w3.org/2000/svg" viewBox="0 0 435.58 298.94"><defs><style>.cls-1{font-size:153.6px;font-family:Roboto-Bold, Roboto;font-weight:700;letter-spacing:0.02em;}.cls-1,.cls-10,.cls-3,.cls-5{fill:#5e9bc9;}.cls-2,.cls-7{fill:#ccf5ff;}.cls-2,.cls-5,.cls-6,.cls-8,.cls-9{fill-rule:evenodd;}.cls-3{font-size:29.46px;font-family:Roboto-MediumItalic, Roboto;font-style:italic;}.cls-4,.cls-6{fill:#f2b92c;}.cls-13,.cls-8{fill:#4480a5;}.cls-9{fill:#ff9750;}.cls-11{fill:#d19c24;}.cls-12{fill:#5d5d5d;}.cls-14{fill:none;stroke:#cc6e2f;stroke-miterlimit:10;stroke-width:2px;}</style></defs><title>Asset 4</title><g id="Layer_2" data-name="Layer 2"><g id="OBJECTS"><text class="cls-1" transform="translate(70.46 186.58)">404</text><path class="cls-2" d="M177.15,214.58s-43.62,19.44-86,0-56.62,0-56.62,0v44.56s14.27-19.43,56.62,0,86,0,86,0Z"/><text class="cls-3" transform="translate(54.47 243.81) rotate(-6.7) scale(0.95 1)">E</text><text class="cls-3" transform="translate(73.92 242.61) rotate(13.39) scale(0.95 1)">R</text><text class="cls-3" transform="matrix(0.91, 0.28, -0.3, 0.95, 95.81, 249.23)">R</text><text class="cls-3" transform="matrix(0.95, 0.06, -0.07, 1, 120.75, 255.87)">O</text><text class="cls-3" transform="matrix(0.95, -0.11, 0.12, 0.99, 147.69, 256.8)">R</text><path class="cls-4" d="M233.7,223.65s1.79-13.1-6.53-13.44-15.36,10.59-12.78,26.12S228.48,255,228.48,255Z"/><path class="cls-5" d="M253.7,236l-25.13-15.86V240.9H222A1.11,1.11,0,0,0,220.9,242h0a1.11,1.11,0,0,0,1.11,1.11h6.56v11.8l76.87,9.52v-25s-11.24-2.23-11.56-9.19Z"/><path class="cls-6" d="M381.31,232.55c-1.71-.53-3.7-.27-5.44-.27h-8.22l-16.45,0-32.9,0c-.16,0-2,2.75-2.3,3.07a14,14,0,0,1-3.53,2.54,13.87,13.87,0,0,1-4.13,1.34c-2,.31-2.87-.45-2.9,1.85-.1,7.76,0,15.53,0,23.29,19.29,1.89,38.74,3.78,58,1.66a42.74,42.74,0,0,0,11.15-2.4,18,18,0,0,0,8.83-7c2.16-3.51,2.65-7.8,2.64-11.92a23.88,23.88,0,0,0-1.33-8.83,6.09,6.09,0,0,0-2.19-2.86A4.89,4.89,0,0,0,381.31,232.55Z"/><polygon class="cls-7" points="253.7 235.72 253.7 240.98 228.57 240.98 228.57 220.15 253.7 235.72"/><polygon class="cls-8" points="228.57 243.12 305.39 243.12 228.57 247.08 228.57 243.12"/><path class="cls-9" d="M318.3,232.33l-12.86,32.1s31.7,2.58,36.13,2.58l13.54-34.81Z"/><circle class="cls-10" cx="345.15" cy="288.36" r="10.58"/><circle class="cls-7" cx="345.15" cy="288.43" r="8.26"/><path class="cls-5" d="M322.81,219.83a47,47,0,0,1,37.14-8.8s9.28.86,8.18,5.38c-1,4-4.85,4.15-8.31,3.37a78.5,78.5,0,0,0-24.82-1.9A92,92,0,0,0,322.81,219.83Z"/><polygon class="cls-11" points="341.52 277.78 335.38 266.73 332.2 266.48 338.98 279.89 341.9 278.36 341.52 277.78"/><polygon class="cls-12" points="335 217.87 324.06 260.68 326.65 260.68 337.05 217.72 335 217.87"/><polygon class="cls-12" points="337.05 260.27 335 217.87 337.05 217.72 339.05 260.27 337.05 260.27"/><polygon class="cls-12" points="356.22 219.03 337.05 260.27 339.56 260.68 358.59 219.5 356.22 219.03"/><polygon class="cls-13" points="372.64 244.87 359.28 219.65 358.59 219.5 357.72 221.39 370.57 245.9 372.64 244.87"/><polygon class="cls-10" points="356.82 223.34 357.72 266.73 360.04 266.73 358.74 223.34 357.72 220.84 356.82 223.34"/><polygon class="cls-13" points="348.25 236.18 361.71 266.4 359.47 266.48 347.11 238.63 348.25 236.18"/><path class="cls-13" d="M385.64,239.2s-5.54-.79-6,4.58,3.83,7.22,6,6.45A31.32,31.32,0,0,0,385.64,239.2Z"/><polygon class="cls-11" points="356.74 266.73 345.15 287.36 347.56 288.7 360.82 266.48 356.74 266.73"/><circle class="cls-10" cx="345.86" cy="287.85" r="3.02"/><path class="cls-14" d="M177.14,243.48s11.63-4.58,25.94,2S228,246.73,228,246.73"/><polygon class="cls-12" points="392.47 208.24 390.54 247.69 392.43 287.15 394.36 247.69 392.47 208.24"/><path class="cls-9" d="M392.19,248.21h0a2.1,2.1,0,0,1-2.09-2.09v-3.52a2.1,2.1,0,0,1,2.09-2.09h0a2.1,2.1,0,0,1,2.09,2.09v3.52A2.1,2.1,0,0,1,392.19,248.21Z"/><path class="cls-5" d="M371,248.64h0a2.1,2.1,0,0,1-2.09-2.09V243a2.1,2.1,0,0,1,2.09-2.09h0a2.1,2.1,0,0,1,2.09,2.09v3.52A2.1,2.1,0,0,1,371,248.64Z"/><rect class="cls-10" x="385.88" y="243.58" width="4.21" height="2.32"/><path class="cls-2" d="M313.18,263.27s10.34-8.84,30.71-5.24c0,0,8.6.74,7.58,4.66-.91,3.49-4.42,3.06-7.7,2.92-8.62-.37-13.36-1.52-23-1.65C316.83,263.91,314.28,264.46,313.18,263.27Z"/><path class="cls-7" d="M406.72,144.94a17.14,17.14,0,0,0,.7-4.84c0-9.79-8.23-17.73-18.39-17.73a18.75,18.75,0,0,0-10.94,3.48,31.51,31.51,0,0,0-14.41-3.48c-17.87,0-32.36,14.88-32.36,33.24s14.49,33.24,32.36,33.24A31.79,31.79,0,0,0,386,179.68a24.93,24.93,0,0,0,19,8.43c13.25,0,24-9.68,24-21.61C429,155.09,419.16,145.75,406.72,144.94Z"/><path class="cls-10" d="M341.2,159.29s-3.85-28.67,22.47-29.86C363.68,129.43,344.52,133.83,341.2,159.29Z"/><ellipse class="cls-7" cx="427.67" cy="129.62" rx="7.91" ry="7.79"/><ellipse class="cls-7" cx="334.59" cy="177.67" rx="7.91" ry="7.79"/><circle class="cls-7" cx="24.32" cy="10.15" r="10.15"/><path class="cls-7" d="M93.77,18.69a10,10,0,0,0,.49-3.08c0-6.24-5.75-11.3-12.85-11.3a14,14,0,0,0-7.65,2.22A23.76,23.76,0,0,0,63.69,4.31C51.2,4.31,41.08,13.8,41.08,25.5c0,.42,0,.84,0,1.26a13.58,13.58,0,0,0-4,1.75A23.76,23.76,0,0,0,27,26.28c-12.49,0-22.61,9.48-22.61,21.18S14.55,68.65,27,68.65A23.36,23.36,0,0,0,42.63,62.8a18.2,18.2,0,0,0,13.28,5.37c9.26,0,16.76-6.17,16.76-13.77A12.23,12.23,0,0,0,69.2,46a23.05,23.05,0,0,0,10.08-5.19A18.2,18.2,0,0,0,92.56,46.2c9.26,0,16.76-6.17,16.76-13.77C109.32,25.16,102.46,19.21,93.77,18.69Z"/><ellipse class="cls-7" cx="7.54" cy="74.36" rx="7.54" ry="6.77"/><path class="cls-10" d="M12.65,54.58S9.11,32.83,33.29,31.93C33.29,31.93,15.69,35.27,12.65,54.58Z"/><path class="cls-12" d="M411.45,11c-14-2.68-20.44,4.5-23.37,10.65.66-6.59-1.36-15.26-15.43-17.84a.76.76,0,0,0-.44,1.45c6.14,2.51,13.3,7.86,13.91,19.16a.76.76,0,0,0,1.39.38.74.74,0,0,0,1-.24,26.66,26.66,0,0,1,22.83-12.05A.76.76,0,0,0,411.45,11Z"/><path class="cls-12" d="M422.57,32.64c-9.2,1.24-11.7,7-12.24,11.43-1-4.21-4-9.15-13.24-7.83a.5.5,0,0,0,0,1c4.32.28,9.85,2.1,12.58,9a.5.5,0,0,0,.94,0,.48.48,0,0,0,.56-.35A17.39,17.39,0,0,1,422.8,33.6.5.5,0,0,0,422.57,32.64Z"/></g></g></svg>