<svg width="470" height="451" viewBox="0 0 470 451" fill="none" xmlns="http://www.w3.org/2000/svg">
<g clip-path="url(#clip0)">
<path d="M463.118 4.01141H138.219V195.701H463.118V4.01141Z" fill="#D5DBDA"/>
<path d="M453.942 7.73633H147.108V191.976H453.942V7.73633Z" fill="white"/>
<path d="M429.567 16.3323H169.762V28.6531H429.567V16.3323Z" fill="#EFEFEF"/>
<path d="M193.277 133.523H179.225V169.053H193.277V133.523Z" fill="#98C1ED"/>
<path d="M225.107 102.292H211.056V168.767H225.107V102.292Z" fill="#98C1ED"/>
<path d="M256.937 109.168H242.886V168.767H256.937V109.168Z" fill="#98C1ED"/>
<path d="M288.768 75.3577H274.717V168.767H288.768V75.3577Z" fill="#98C1ED"/>
<g opacity="0.62">
<g opacity="0.62">
<g opacity="0.62">
<path opacity="0.62" d="M217.651 102.292H211.056V168.767H217.651V102.292Z" fill="#414042"/>
</g>
</g>
</g>
<g opacity="0.62">
<g opacity="0.62">
<g opacity="0.62">
<path opacity="0.62" d="M185.821 133.523H179.225V169.053H185.821V133.523Z" fill="#414042"/>
</g>
</g>
</g>
<g opacity="0.62">
<g opacity="0.62">
<g opacity="0.62">
<path opacity="0.62" d="M281.312 75.3577H274.717V168.767H281.312V75.3577Z" fill="#414042"/>
</g>
</g>
</g>
<g opacity="0.62">
<g opacity="0.62">
<g opacity="0.62">
<path opacity="0.62" d="M249.481 109.168H242.886V168.767H249.481V109.168Z" fill="#414042"/>
</g>
</g>
</g>
<path d="M296.223 178.509H169.762V44.1258H171.77V176.79H296.223V178.509Z" fill="#D5DBDA"/>
<path d="M182.953 116.905L181.519 115.472L214.497 85.6728L245.18 92.263L278.444 55.587L279.878 56.7332L246.04 94.5553L215.07 87.6785L182.953 116.905Z" fill="#D5DBDA"/>
<path d="M282.459 62.1773L272.996 53.2948L285.04 49.8564L282.459 62.1773Z" fill="#D5DBDA"/>
<path d="M320.024 124.928H308.267V136.675H320.024V124.928Z" fill="#98C1ED"/>
<path d="M320.024 145.844H308.267V157.592H320.024V145.844Z" fill="#98C1ED"/>
<path d="M361.031 150.715H323.466V157.306H361.031V150.715Z" fill="#EFEFEF"/>
<path d="M361.031 130.085H323.466V136.675H361.031V130.085Z" fill="#EFEFEF"/>
<path d="M389.707 124.928H377.95V136.675H389.707V124.928Z" fill="#98C1ED"/>
<path d="M389.707 145.844H377.95V157.592H389.707V145.844Z" fill="#98C1ED"/>
<path d="M430.714 150.715H393.148V157.306H430.714V150.715Z" fill="#EFEFEF"/>
<path d="M430.714 130.085H393.148V136.675H430.714V130.085Z" fill="#EFEFEF"/>
<path d="M429.28 52.1487H318.304V54.7275H429.28V52.1487Z" fill="#EFEFEF"/>
<path d="M429.567 58.4524H309.701V61.0312H429.567V58.4524Z" fill="#EFEFEF"/>
<path d="M429.567 64.4695H309.701V67.0483H429.567V64.4695Z" fill="#EFEFEF"/>
<path d="M429.567 70.4866H309.701V73.0654H429.567V70.4866Z" fill="#EFEFEF"/>
<path d="M429.567 76.7903H309.701V79.3691H429.567V76.7903Z" fill="#EFEFEF"/>
<path d="M429.567 82.8075H309.701V85.3863H429.567V82.8075Z" fill="#EFEFEF"/>
<path d="M429.567 88.8246H309.701V91.4034H429.567V88.8246Z" fill="#EFEFEF"/>
<path d="M429.567 95.1284H309.701V97.7071H429.567V95.1284Z" fill="#EFEFEF"/>
<path d="M429.28 101.146H326.62V103.724H429.28V101.146Z" fill="#EFEFEF"/>
<path d="M470 2.57878C470 4.01144 468.853 5.15756 467.419 5.15756H133.63C132.197 5.15756 131.05 4.01144 131.05 2.57878C131.05 1.14612 132.197 0 133.63 0H467.419C468.853 0 470 1.14612 470 2.57878Z" fill="#4C4C4C"/>
<path d="M470 197.42C470 198.853 468.853 199.999 467.419 199.999H133.63C132.197 199.999 131.05 198.853 131.05 197.42C131.05 195.987 132.197 194.841 133.63 194.841H467.419C468.853 194.841 470 195.987 470 197.42Z" fill="#4C4C4C"/>
<path d="M82.8738 417.476L84.5944 320.628H78.2856L80.0062 417.476C80.0062 418.335 80.5797 419.195 81.44 419.195C82.3003 419.195 82.8738 418.335 82.8738 417.476Z" fill="#4C4C4C"/>
<path d="M23.5144 406.015L60.7932 316.617L54.7712 314.325L20.9335 404.868C20.6468 405.728 20.9335 406.874 21.5071 407.161C22.3673 407.447 23.2276 406.874 23.5144 406.015Z" fill="#4C4C4C"/>
<path d="M139.366 406.015L102.087 316.617L108.109 314.325L142.233 404.868C142.52 405.728 142.233 406.874 141.66 407.161C140.513 407.447 139.652 406.874 139.366 406.015Z" fill="#4C4C4C"/>
<g opacity="0.3">
<g opacity="0.3">
<g opacity="0.3">
<g opacity="0.3">
<path opacity="0.3" d="M53.9109 317.19L57.6388 318.623L22.6541 407.161C22.9408 406.874 23.5143 406.588 23.5143 406.015L60.7932 316.617L54.7712 314.325L53.9109 317.19Z" fill="#414042"/>
</g>
</g>
</g>
<g opacity="0.3">
<g opacity="0.3">
<g opacity="0.3">
<path opacity="0.3" d="M78.2856 323.207H83.1606L81.44 419.195C81.44 419.195 81.44 419.195 81.7268 419.195C82.5871 419.195 83.1606 418.335 83.1606 417.476L84.8811 320.628H78.5724L78.2856 323.207Z" fill="#414042"/>
</g>
</g>
</g>
<g opacity="0.3">
<g opacity="0.3">
<g opacity="0.3">
<path opacity="0.3" d="M141.946 404.869L107.822 314.325L101.8 316.617L102.373 318.336L106.101 316.903L139.939 406.874C140.226 407.161 140.799 407.161 141.086 407.161C141.946 406.874 142.233 406.015 141.946 404.869Z" fill="#414042"/>
</g>
</g>
</g>
</g>
<path d="M125.887 325.213C119.292 330.657 109.542 335.528 85.1672 335.814C52.7633 336.388 35.8444 332.663 26.6681 316.044C11.183 288.25 30.396 198.28 60.7926 218.05C86.0275 234.669 91.1891 287.964 94.6303 295.127C97.7846 302.863 141.659 312.319 125.887 325.213Z" fill="#E8F6F7"/>
<path d="M90.6162 328.938C58.2123 329.511 41.2934 325.786 32.1171 309.167C21.507 290.256 27.2422 242.119 41.5802 220.056C23.2276 236.961 14.9115 294.841 26.6687 316.044C35.845 332.663 52.7639 336.388 85.1678 335.814C109.829 335.241 119.579 330.37 125.888 325.213C128.182 323.494 129.042 321.774 129.329 320.055C122.733 324.64 112.697 328.651 90.6162 328.938Z" fill="#D0E0E2"/>
<path d="M104.381 116.045C106.675 109.741 108.682 102.865 112.123 106.303C115.851 109.741 115.565 109.455 114.131 114.326C112.984 119.483 102.66 121.489 104.381 116.045Z" fill="#C2D8F4"/>
<path d="M108.396 107.163C109.543 104.011 111.263 100.572 113.271 99.1398C114.991 97.7071 112.41 102.865 111.55 105.157C110.976 107.449 107.535 109.455 108.396 107.163Z" fill="#C2D8F4"/>
<path d="M105.528 141.546C108.109 131.804 109.543 119.197 109.543 119.197L104.668 116.045C104.668 116.045 94.6311 136.389 89.4694 151.861L61.9404 144.698L58.4993 144.125L67.3888 162.177C67.3888 162.177 94.0575 166.188 95.4913 165.042C96.9251 163.896 102.66 151.575 105.528 141.546Z" fill="#F4F4F4"/>
<path d="M95.4913 164.755C93.7708 165.615 67.3888 161.89 67.3888 161.89L58.4993 143.839L61.9404 144.412C64.5212 145.558 68.5359 149.569 71.6902 153.867C73.9843 157.019 75.4181 158.165 78.8592 159.311C84.3077 161.317 90.0429 162.75 92.337 163.036C96.0649 163.323 96.3516 163.323 97.2119 162.463C96.6384 162.463 96.9251 163.896 95.4913 164.755Z" fill="#EAEAEA"/>
<path d="M30.3967 197.993C32.1172 202.577 32.404 207.449 31.5437 212.033C29.5364 221.202 31.8305 222.062 31.8305 222.062C31.8305 222.062 44.4479 230.084 55.058 233.236C62.5138 235.529 69.1093 235.242 68.8225 226.933C68.8225 226.36 68.8225 226.073 68.8225 225.5C68.5358 206.875 72.2637 206.016 73.4107 185.099C74.271 163.609 68.5358 151.861 63.0873 146.704C57.3521 141.546 49.6096 141.26 34.9848 144.698C24.0879 147.277 20.3601 150.142 20.6468 158.165C20.6468 160.744 21.2203 164.182 21.7939 168.194C23.2277 178.222 27.5291 190.543 30.3967 197.993Z" fill="#F4F4F4"/>
<path d="M56.7786 152.148C56.7786 152.148 68.249 189.397 65.955 207.162L61.6535 214.898L57.0654 206.589C57.0654 206.589 60.7933 171.059 53.6243 153.008L56.7786 152.148Z" fill="#414042"/>
<path d="M30.3966 197.993C32.1172 202.577 32.4039 207.449 31.5437 212.033C29.5363 221.202 31.8304 222.062 31.8304 222.062C31.8304 222.062 44.4479 230.084 55.058 233.236L64.8078 232.377L68.8225 229.225V226.646C68.8225 226.073 68.8225 225.787 68.8225 225.213C66.5284 225.5 61.3667 225.787 53.9109 224.927C48.1757 224.354 43.0141 222.635 39.2862 221.202C36.7053 220.342 35.2715 217.477 35.8451 214.898C36.4186 211.173 37.2789 206.016 37.2789 202.004C37.2789 197.993 35.2715 190.83 33.8377 185.959C32.6907 182.234 32.1172 178.222 32.4039 174.211C32.9775 167.334 32.4039 160.744 32.4039 160.744L24.6614 156.446L20.0732 158.165C20.0732 160.744 20.6468 164.182 21.2203 168.194C23.2276 178.222 27.529 190.543 30.3966 197.993Z" fill="#E2E2E2"/>
<path d="M30.1099 237.534C29.2497 237.821 26.9556 233.523 26.9556 233.523L27.8158 232.377C28.3894 231.517 29.2497 231.231 30.1099 230.944H30.3967C31.257 230.658 32.1173 230.944 32.404 231.517C32.9775 232.377 34.1246 233.523 35.2716 233.523C36.4187 233.523 31.257 237.534 30.1099 237.534Z" fill="#F4D5B5"/>
<path d="M65.6682 108.022C65.6682 108.022 66.5285 110.601 65.0947 112.893L59.0728 104.87H63.3742L65.6682 108.022Z" fill="#3378D3"/>
<path d="M32.9777 118.91C33.2644 129.512 42.154 135.529 42.154 135.529L41.5805 144.985L47.6025 148.996L51.9039 151.575L54.1979 146.417L54.4847 140.4C54.4847 138.968 55.6317 137.821 57.0655 137.535C58.4993 137.248 60.7934 136.389 63.0875 133.81C63.0875 133.524 63.3743 133.524 63.3743 133.237C67.3889 127.793 68.8227 107.163 55.345 101.145C41.5805 95.4149 32.6909 108.309 32.9777 118.91Z" fill="#C2D8F4"/>
<path d="M48.1759 143.266L47.8892 148.996L52.1906 151.575L54.4846 146.417L54.7714 140.4C54.7714 138.968 55.9184 137.821 57.3522 137.535C58.786 137.248 61.0801 136.389 63.3742 133.81C63.3742 133.524 63.661 133.524 63.661 133.237C63.3742 133.524 60.2199 135.243 55.0582 135.816C51.3303 136.389 48.4627 139.541 48.1759 143.266Z" fill="#98C1ED"/>
<path d="M47.6023 122.062C47.0288 122.349 46.4553 121.489 46.4553 121.489C46.4553 121.489 43.5877 114.899 42.4407 113.753C40.7201 112.034 36.4187 112.034 36.1319 117.764C35.8452 122.062 41.0068 131.518 42.7274 134.383C43.0142 134.956 43.0142 135.529 42.4407 135.816C42.1539 135.816 42.1539 136.102 41.8671 136.102C41.5804 136.102 41.2936 136.102 41.2936 135.816C37.8525 132.95 23.2277 118.624 34.9849 105.443C34.9849 105.443 44.1612 106.016 45.595 110.601C47.0288 115.185 48.1759 121.203 48.1759 121.203C48.1759 121.203 48.1759 121.776 47.6023 122.062Z" fill="#3378D3"/>
<path d="M65.6683 108.022C65.6683 108.022 57.6391 101.719 45.0216 109.455L34.985 106.876C34.985 106.876 34.6982 106.876 34.6982 105.157C34.985 103.724 36.132 88.8246 53.9112 91.9765C63.9478 93.9822 70.2565 101.145 65.6683 108.022Z" fill="#3378D3"/>
<path d="M57.6389 148.996V149.569C57.6389 150.429 57.3522 151.288 56.7787 152.148L53.6243 152.721L51.0435 150.715L54.1978 147.277H54.7713C55.6316 147.564 56.7787 148.137 57.6389 148.996Z" fill="#414042"/>
<path d="M41.8671 140.4C41.8671 140.4 40.4333 141.26 38.9995 143.552C38.9995 143.552 41.0068 144.412 42.7274 145.558C44.448 146.417 51.9037 151.862 51.9037 151.862L54.1978 147.277C54.1978 147.277 46.1685 141.833 41.8671 140.4Z" fill="#E2E2E2"/>
<path d="M54.1978 147.277C54.1978 147.277 56.7786 148.137 57.6389 150.142C57.6389 150.142 59.0727 147.564 57.3521 142.692C57.3521 142.692 55.9183 141.26 54.7713 140.687L54.1978 147.277Z" fill="#E2E2E2"/>
<path d="M32.6909 230.944C32.6909 230.944 34.1247 232.663 34.4115 232.95C34.6982 233.236 34.985 232.663 34.6982 232.377C34.6982 232.09 32.6909 230.658 32.6909 230.944Z" fill="#E5BB98"/>
<path d="M41.867 135.816C41.5803 135.816 41.2935 135.816 41.0067 135.529C37.5656 132.664 22.9408 118.337 34.698 105.157C34.698 105.157 34.1245 107.449 34.4113 109.455C34.4113 109.455 26.9555 121.489 41.867 135.816Z" fill="#3378D3"/>
<path d="M49.0363 423.207C75.9598 423.207 97.7856 421.539 97.7856 419.482C97.7856 417.424 75.9598 415.757 49.0363 415.757C22.1129 415.757 0.287109 417.424 0.287109 419.482C0.287109 421.539 22.1129 423.207 49.0363 423.207Z" fill="#D8D8D8"/>
<path d="M24.9485 405.442C25.522 408.02 25.2352 408.88 25.522 410.313C25.8088 412.318 27.5293 412.891 28.6764 414.611C29.8234 416.33 31.544 419.195 24.6617 419.482C16.9192 419.768 12.6178 419.195 13.7648 414.897C15.1986 410.599 15.1986 408.593 15.1986 407.161C15.1986 405.728 15.1986 404.295 16.0589 403.436C17.2059 402.576 24.0882 401.144 24.9485 405.442Z" fill="#3378D3"/>
<path d="M26.6691 268.193C26.6691 268.193 14.6252 248.996 31.8308 222.062C31.8308 222.062 45.3085 228.079 55.9186 228.652C64.2347 229.225 68.5361 228.365 68.5361 228.365C68.5361 228.365 69.1096 254.153 69.3964 268.193H26.6691Z" fill="#414042"/>
<path d="M34.985 324.067C38.4262 310.027 24.6617 307.735 20.3603 317.763C14.3383 332.09 14.6251 394.553 14.9118 403.722C14.9118 404.869 15.4853 404.582 16.3456 404.582C18.3529 404.009 20.0735 403.722 20.647 403.722C22.0808 404.009 25.2352 405.728 25.2352 405.728C26.3822 393.121 31.5439 337.534 34.985 324.067Z" fill="#414042"/>
<path d="M47.3156 269.912C48.7494 252.721 42.1539 239.254 31.8306 244.984C27.2424 247.276 25.8086 252.147 25.2351 256.732C24.6616 261.316 21.5072 308.308 20.3602 316.903C17.7793 336.101 32.4041 330.944 34.1246 325.499C37.8525 312.032 46.4553 279.368 47.3156 269.912Z" fill="#414042"/>
<path d="M71.6903 323.207C72.2638 310.313 61.3669 310.886 57.0655 321.201C47.6025 342.978 57.0655 389.396 59.0729 411.172C61.0802 407.734 65.0948 406.588 66.2419 406.588C67.6757 406.588 68.5359 408.02 68.5359 408.02C67.9624 380.8 71.1168 336.961 71.6903 323.207Z" fill="#414042"/>
<path d="M57.3523 324.64C59.0729 329.797 72.8374 336.101 71.4036 316.903C70.8301 308.308 69.1095 261.03 68.8228 256.445C68.536 251.861 67.6757 245.271 65.3816 244.411C54.4847 240.113 43.5879 253.867 46.4555 271.059C48.4628 282.233 53.9112 313.465 57.3523 324.64Z" fill="#414042"/>
<path d="M68.2494 408.02C68.8229 409.167 71.6905 411.745 75.4184 413.465C79.1463 415.184 87.4623 416.043 82.8742 417.476C78.286 418.909 73.1243 418.049 70.5435 417.762C67.9626 417.189 65.3818 417.189 62.2274 417.189C58.2128 417.189 57.926 416.903 58.4995 412.318C59.3598 406.015 66.5288 404.582 68.2494 408.02Z" fill="#3378D3"/>
<path d="M29.5365 227.219L31.5438 230.084C31.5438 230.084 35.2717 229.511 37.279 232.95C38.9996 236.388 32.6909 240.973 30.9703 239.253C29.2498 237.534 25.2351 230.084 25.2351 230.084L29.5365 227.219Z" fill="#C2D8F4"/>
<path d="M13.478 217.764C19.2132 223.494 25.2352 231.804 25.2352 231.804L26.3822 230.944L30.6836 228.079C30.6836 228.079 22.0808 210.027 19.5 201.145C18.353 196.847 16.3456 193.408 14.3383 190.83C14.6251 190.543 14.6251 190.543 14.9118 190.257C21.2206 183.666 26.0955 175.071 29.8234 169.626C31.5439 167.048 32.9777 164.182 33.2645 161.03C33.5512 159.025 33.5512 156.733 33.2645 154.727C32.9777 151.861 31.5439 148.996 28.3896 148.137C27.2425 147.85 26.0955 147.85 24.9484 148.423C23.8014 148.996 22.6544 149.856 22.0808 151.002C17.2059 159.025 3.44142 180.228 1.14734 185.386C0.860579 186.245 0.573818 187.105 0.287058 187.964C0.00029793 188.251 0.000297938 188.537 0.000297938 189.111C-0.859983 197.706 7.74282 211.746 13.478 217.764Z" fill="#F4F4F4"/>
<path d="M13.4779 217.764C19.2131 223.494 25.235 231.804 25.235 231.804L26.3821 230.944C26.3821 230.944 20.0734 222.062 16.919 218.623C12.3308 213.179 9.17647 208.881 6.30886 203.724C3.44126 198.566 2.29422 189.111 3.72802 186.245C5.16182 183.666 13.1911 171.632 14.9117 169.34C16.6322 167.048 30.6835 153.008 26.6688 148.996C26.0953 148.423 25.235 148.423 24.3748 148.423C23.2277 148.996 22.0807 149.856 21.5072 151.002C16.6322 159.025 2.86774 180.228 0.57366 185.386C0.286899 186.245 0.000139117 187.105 -0.286621 187.964C0.000139117 188.251 0.000139117 188.537 0.000139117 189.111C-0.860142 197.706 7.74266 211.746 13.4779 217.764Z" fill="#EAEAEA"/>
<path d="M36.132 230.371C36.132 230.371 34.1247 237.248 25.5219 241.259C18.0662 244.698 37.5658 246.703 37.8526 245.844C38.1394 244.984 42.154 232.663 42.154 232.663L36.132 230.371Z" fill="#414042"/>
<path d="M184.961 412.032L186.681 314.611H180.086L181.806 412.032C181.806 412.891 182.38 413.751 183.24 413.751C184.387 413.751 184.961 412.891 184.961 412.032Z" fill="#4C4C4C"/>
<path d="M125.314 400.57L162.88 310.886L156.858 308.593L122.734 399.71C122.447 400.57 122.734 401.716 123.307 402.003C124.167 402.003 125.028 401.429 125.314 400.57Z" fill="#4C4C4C"/>
<path d="M241.739 400.571L204.174 310.886L210.196 308.594L244.32 399.711C244.607 400.571 244.32 401.717 243.746 402.003C242.886 402.003 242.026 401.43 241.739 400.571Z" fill="#4C4C4C"/>
<g opacity="0.3">
<g opacity="0.3">
<g opacity="0.3">
<g opacity="0.3">
<path opacity="0.3" d="M155.998 311.172L159.726 312.605L124.454 401.716C124.741 401.429 125.314 401.143 125.314 400.57L162.88 310.886L156.858 308.593L155.998 311.172Z" fill="#414042"/>
</g>
</g>
</g>
<g opacity="0.3">
<g opacity="0.3">
<g opacity="0.3">
<path opacity="0.3" d="M180.372 317.19H185.247L183.527 413.751C183.527 413.751 183.527 413.751 183.813 413.751C184.674 413.751 185.247 412.891 185.247 412.032L186.968 314.611H180.372V317.19Z" fill="#414042"/>
</g>
</g>
</g>
<g opacity="0.3">
<g opacity="0.3">
<g opacity="0.3">
<path opacity="0.3" d="M244.32 399.424L210.195 308.307L204.173 310.6L204.747 312.319L208.475 310.886L242.599 401.43C242.886 401.717 243.459 401.717 243.746 401.717C244.32 401.43 244.607 400.284 244.32 399.424Z" fill="#414042"/>
</g>
</g>
</g>
</g>
<path d="M230.842 281.374C230.842 318.623 209.622 327.792 183.527 327.792C157.432 327.792 136.211 318.909 136.211 281.374C136.211 244.125 157.432 208.022 183.527 208.022C209.622 207.735 230.842 243.838 230.842 281.374Z" fill="#E8F6F7"/>
<path d="M187.255 319.196C161.16 319.196 139.939 310.313 139.939 272.778C139.939 259.884 142.52 247.276 146.822 236.102C140.226 248.996 136.211 265.041 136.211 281.087C136.211 318.336 157.432 327.505 183.527 327.505C203.887 327.505 221.379 322.061 227.975 301.717C219.659 315.184 204.747 319.196 187.255 319.196Z" fill="#D0E0E2"/>
<path d="M160.873 271.345C160.873 271.345 154.851 284.239 153.704 292.835C151.983 305.442 154.564 310.886 170.622 311.459C186.681 312.032 191.556 308.881 199.012 308.881C206.754 308.881 215.644 294.267 205.607 277.076L160.873 271.345Z" fill="#414042"/>
<path d="M167.755 377.075L167.468 381.946C167.468 381.946 162.593 395.986 162.593 399.424C162.306 405.728 164.887 412.605 167.468 412.318C170.622 412.318 174.637 408.307 176.358 400.57C177.505 395.413 175.497 385.098 176.358 382.806C177.218 380.513 178.652 375.642 178.652 375.642L167.755 377.075Z" fill="#C2D8F4"/>
<path d="M176.931 397.992C174.924 399.997 170.622 404.582 168.902 404.295C167.181 404.295 164.027 398.851 163.167 396.559C162.88 397.705 162.593 398.851 162.593 399.424C162.306 405.728 164.887 412.605 167.468 412.318C170.622 412.318 174.637 408.307 176.358 400.57C176.644 400.284 176.931 399.138 176.931 397.992Z" fill="#3378D3"/>
<path d="M178.365 379.654C178.365 379.654 197.578 318.91 199.872 311.46C202.166 304.01 204.174 289.683 192.99 287.391C183.24 285.385 179.225 299.712 177.505 308.308C175.784 317.19 166.895 375.929 166.895 375.929C166.895 375.929 165.748 379.368 171.483 380.227C177.792 381.373 178.365 379.654 178.365 379.654Z" fill="#4C4C4C"/>
<g opacity="0.1">
<g opacity="0.1">
<g opacity="0.1">
<path opacity="0.1" d="M189.835 287.104C185.533 292.835 183.526 303.436 182.379 309.454C180.658 318.336 171.769 378.508 171.769 378.508C171.769 378.508 173.203 379.367 176.357 380.8C176.07 380.8 175.21 380.8 174.923 380.8C168.614 381.373 167.181 377.361 167.181 377.361C167.181 377.361 176.07 317.19 177.791 308.307C179.511 300.571 182.666 288.537 189.835 287.104Z" fill="#414042"/>
</g>
</g>
</g>
<path d="M143.667 374.783L143.094 379.654C143.094 379.654 137.358 393.407 136.785 396.846C135.925 402.863 138.219 410.026 140.799 410.313C143.954 410.599 148.255 406.874 150.549 399.424C152.27 394.267 150.836 383.952 151.696 381.659C152.557 379.367 154.277 374.783 154.277 374.783H143.667Z" fill="#C2D8F4"/>
<path d="M151.41 396.273C149.116 398.278 144.527 402.29 143.094 402.003C141.373 401.717 138.792 396.273 137.932 393.98C137.645 395.126 137.358 396.273 137.072 396.846C136.211 402.863 138.506 410.026 141.086 410.313C144.241 410.599 148.542 406.874 150.836 399.424C150.836 398.278 151.123 397.419 151.41 396.273Z" fill="#3378D3"/>
<path d="M153.99 377.935C153.99 377.935 177.505 318.623 180.372 311.459C183.24 304.296 186.108 290.256 175.211 286.818C165.748 283.952 160.586 297.992 158.292 306.588C155.998 315.184 142.807 373.35 142.807 373.35C142.807 373.35 141.66 376.502 147.108 377.935C153.13 379.654 153.99 377.935 153.99 377.935Z" fill="#4C4C4C"/>
<g opacity="0.1">
<g opacity="0.1">
<g opacity="0.1">
<path opacity="0.1" d="M172.056 286.531C167.467 291.975 164.6 302.29 162.879 308.307C160.585 316.903 147.394 376.215 147.394 376.215C147.394 376.215 148.828 377.075 151.982 378.794C151.696 378.794 150.835 378.794 150.549 378.794C144.24 378.794 143.093 374.783 143.093 374.783C143.093 374.783 155.997 315.471 158.578 306.875C160.585 299.138 164.887 287.677 172.056 286.531Z" fill="#414042"/>
</g>
</g>
</g>
<path d="M171.196 148.71C171.196 148.71 173.203 139.541 188.689 142.406C203.313 145.271 202.453 165.615 203.887 171.059C205.321 175.357 207.901 181.661 209.049 183.953C209.335 184.526 209.049 185.386 208.475 185.386C203.027 187.105 180.372 193.982 164.601 184.526C163.167 183.666 162.02 182.52 161.446 181.088C161.16 180.515 160.873 179.655 161.16 178.795C161.16 176.503 162.593 173.351 161.446 166.188C160.586 159.598 162.02 148.423 171.196 148.71Z" fill="#3378D3"/>
<path d="M166.895 168.194C166.895 168.194 164.887 170.486 165.748 174.497C166.321 178.509 170.049 178.509 170.049 178.509L170.623 174.497L169.189 167.621L166.895 168.194Z" fill="#C2D8F4"/>
<path d="M201.019 168.194C201.019 168.194 203.026 170.486 202.166 174.497C201.593 178.509 197.865 178.509 197.865 178.509L197.291 174.784L198.438 167.907L201.019 168.194Z" fill="#C2D8F4"/>
<path d="M203.313 246.13C203.026 250.142 203.026 252.147 203.6 257.018C204.173 261.603 205.607 278.508 205.607 278.508C205.607 278.508 201.879 279.941 195.857 281.087C187.541 282.52 173.49 278.508 160.586 273.924C160.586 273.924 165.461 262.176 165.461 252.434C165.461 251.001 165.461 249.855 165.461 248.422C165.461 246.703 164.887 243.551 164.027 239.54C164.027 238.68 163.74 238.107 163.74 237.248C163.167 234.382 162.88 231.231 162.306 228.079C162.02 224.927 161.733 221.775 161.733 218.623C160.586 210.027 163.167 201.718 163.167 201.718C163.167 201.718 174.064 197.133 178.365 196.56C178.365 196.56 186.394 194.841 192.13 196.56C199.585 199.139 203.6 200.572 207.041 202.291C207.328 202.578 209.622 208.881 208.475 214.325C207.041 222.348 205.034 233.523 203.887 240.4C203.6 243.265 203.313 245.271 203.313 246.13Z" fill="#F4F4F4"/>
<path d="M205.607 280.514C205.607 280.514 201.879 279.941 195.857 281.087C193.563 275.356 194.424 253.867 194.424 253.867C188.115 252.72 178.365 248.996 178.365 248.996C175.784 250.142 168.042 251.861 165.461 252.434C165.461 251.001 165.461 249.855 165.461 248.423C165.461 246.703 164.887 243.551 164.027 239.54C166.895 237.534 172.63 242.119 172.63 242.119L200.446 237.821C200.446 237.821 202.453 238.967 204.174 240.686C203.6 243.265 203.313 245.271 203.313 246.13C203.026 250.142 203.026 252.147 203.6 257.018C204.174 261.603 205.607 280.514 205.607 280.514Z" fill="#E2E2E2"/>
<path d="M199.585 163.609C199.585 167.621 198.725 177.076 196.144 183.38C194.424 187.391 191.843 190.257 188.975 191.976C188.975 193.695 188.975 195.701 190.122 195.987C190.409 196.847 190.983 196.847 190.696 197.993C189.836 202.004 185.247 206.589 184.1 207.735C182.953 208.881 182.093 207.735 182.093 207.735C180.659 206.302 179.512 204.297 178.652 202.577C178.078 201.431 177.505 200.572 177.218 199.712C176.358 197.993 177.505 196.56 177.505 196.56C178.652 196.274 178.365 193.695 178.078 192.262C175.784 190.543 173.49 187.678 171.77 184.239C168.329 177.363 168.042 168.48 168.042 163.609C168.042 155.013 174.924 147.85 183.814 147.85C192.703 148.137 199.585 155.013 199.585 163.609Z" fill="#C2D8F4"/>
<path d="M188.975 192.262C188.115 192.549 184.387 193.982 183.527 195.701C182.666 197.42 182.38 200.572 181.519 201.431C180.946 202.004 179.225 202.864 178.939 202.864C178.365 201.718 177.792 200.858 177.505 199.999C176.644 198.28 177.792 196.847 177.792 196.847C178.939 196.56 178.652 193.982 178.365 192.549C178.365 192.549 180.946 193.695 183.24 193.409C185.534 193.409 187.828 192.549 188.975 192.262Z" fill="#98C1ED"/>
<path d="M194.71 233.809C194.71 233.809 197.291 233.236 197.865 233.236C198.725 233.236 196.431 240.4 196.431 240.4C196.431 240.4 195.571 239.54 194.71 239.253C193.85 238.967 194.137 233.809 194.137 233.809H194.71Z" fill="#C2D8F4"/>
<path d="M207.041 202.291C207.041 202.291 214.21 206.016 213.637 211.46C213.35 216.904 205.034 246.99 203.6 251.001C202.166 255.013 166.034 242.978 166.034 242.978C166.034 242.978 167.181 238.107 168.042 236.961C168.042 236.961 192.703 239.54 195.857 240.973C195.857 240.973 200.732 217.191 202.453 212.893C204.174 208.595 207.041 202.291 207.041 202.291Z" fill="#3378D3"/>
<path d="M194.997 239.827C191.269 241.832 162.593 253.867 160.012 253.007C157.432 252.147 154.277 249.855 153.704 242.978C153.417 236.675 156.858 212.32 157.718 206.589C157.718 205.729 158.292 204.583 158.865 204.01C159.152 203.724 159.152 203.724 159.439 203.437C161.159 202.004 163.167 201.431 163.167 201.431C163.454 202.291 163.454 205.443 163.74 211.46C163.74 212.033 163.74 212.893 163.74 213.466C163.167 216.904 162.306 221.202 162.306 223.494V223.781C162.593 226.36 164.314 230.944 164.314 232.95C164.314 237.534 164.314 238.107 164.314 238.394C165.461 238.107 168.902 237.534 173.203 236.961C182.093 235.242 194.424 233.236 194.424 233.236C195.857 235.529 194.997 239.827 194.997 239.827Z" fill="#3378D3"/>
<path d="M165.174 169.913C165.174 169.913 170.049 169.053 172.917 165.328C175.211 162.463 176.358 158.452 176.358 158.452C176.358 158.452 178.078 162.177 183.813 164.755C189.549 167.334 195.857 169.34 201.879 169.913C201.879 169.913 202.166 156.446 197.865 151.002C193.277 145.558 181.806 142.406 174.064 146.99C166.321 151.575 165.174 169.913 165.174 169.913Z" fill="#3378D3"/>
<path d="M177.792 196.847C177.792 196.847 178.652 204.01 182.093 208.022C182.093 208.022 180.946 207.735 178.652 210.314C178.365 210.6 177.792 210.6 177.792 210.027C177.218 207.162 174.924 199.712 176.071 197.133C176.071 197.133 176.645 196.56 177.792 196.847Z" fill="#3378D3"/>
<path d="M190.122 196.274C190.122 196.274 188.975 199.999 187.828 202.578C186.394 205.729 183.813 208.308 183.813 208.308C183.813 208.308 186.681 208.881 187.828 210.6C188.115 210.887 188.402 210.887 188.688 210.6C189.549 208.881 190.122 207.449 190.982 204.297C192.13 200.572 192.13 198.566 191.843 196.847C191.843 196.56 191.269 195.701 190.122 196.274Z" fill="#3378D3"/>
<path d="M162.306 240.686C159.439 238.107 162.88 233.523 162.593 231.804C162.306 230.084 162.306 229.798 162.02 228.365C162.02 227.506 161.733 225.5 162.02 224.354C162.306 226.933 164.027 231.517 164.027 233.523C164.027 238.107 164.027 238.68 164.027 238.967C165.174 238.68 174.637 236.961 178.939 236.388C180.372 236.388 164.314 242.119 162.306 240.686Z" fill="#E2E2E2"/>
<path d="M167.468 238.107L164.314 238.68C164.314 238.68 160.873 238.394 158.579 238.394C156.858 238.394 155.138 238.967 154.277 239.253C153.991 239.253 153.704 238.967 153.417 238.68C153.13 238.107 152.843 236.675 153.13 235.529C153.13 234.382 153.704 233.236 153.991 232.377C153.991 232.09 154.277 231.804 154.851 231.804C155.998 231.517 157.432 231.517 159.439 231.517C161.733 231.804 162.88 232.663 164.027 233.809L165.174 235.242C165.461 235.815 166.034 236.102 166.895 236.102L168.329 236.388C168.329 236.388 168.042 236.675 168.042 236.961C167.755 237.821 167.468 238.107 167.468 238.107Z" fill="#C2D8F4"/>
<path d="M125.314 271.632H63.0874V275.643H125.314V271.632Z" fill="#282C2D"/>
<path d="M119.866 267.62H63.6609V270.772H119.866V267.62Z" fill="#D6D6D6"/>
<path d="M123.02 270.199H60.7932V271.632H123.02V270.199Z" fill="#525252"/>
<path d="M118.719 268.766H64.8079V269.053H118.719V268.766Z" fill="#A5A5AF"/>
<path d="M118.719 269.626H64.8079V269.912H118.719V269.626Z" fill="#A5A5AF"/>
<path d="M118.719 268.193H64.8079V268.48H118.719V268.193Z" fill="#A5A5AF"/>
<path d="M368.774 268.48H343.252V274.783H368.774V268.48Z" fill="#F1F2F2"/>
<path d="M369.061 268.48H361.031V274.783H369.061V268.48Z" fill="#A7A9AC"/>
<path d="M367.34 268.48H341.818V269.339H367.34V268.48Z" fill="#A7A9AC"/>
<path d="M367.34 273.924H341.818V274.783H367.34V273.924Z" fill="#A7A9AC"/>
<path d="M395.156 268.48H361.605V274.783H395.156V268.48Z" fill="#383838"/>
<path d="M383.112 269.912H365.333V273.351H383.112V269.912Z" fill="#A7A9AC"/>
<path d="M382.251 269.912H366.193V273.064H382.251V269.912Z" fill="#E6E7E8"/>
<path d="M390.281 273.351C391.389 273.351 392.288 272.581 392.288 271.631C392.288 270.682 391.389 269.912 390.281 269.912C389.172 269.912 388.273 270.682 388.273 271.631C388.273 272.581 389.172 273.351 390.281 273.351Z" fill="#A7A9AC"/>
<path d="M359.597 269.626H344.973V270.199H359.597V269.626Z" fill="#A7A9AC"/>
<path d="M359.597 271.918H344.973V272.491H359.597V271.918Z" fill="#A7A9AC"/>
<path d="M359.597 272.778H344.973V273.351H359.597V272.778Z" fill="#A7A9AC"/>
<path d="M358.737 271.058H349.561V271.632H358.737V271.058Z" fill="#A7A9AC"/>
<path d="M348.701 271.058H344.973V271.632H348.701V271.058Z" fill="#A7A9AC"/>
<path d="M364.185 262.176H338.664V268.48H364.185V262.176Z" fill="#F1F2F2"/>
<path d="M364.186 262.176H356.156V268.48H364.186V262.176Z" fill="#A7A9AC"/>
<path d="M362.465 262.176H336.943V263.036H362.465V262.176Z" fill="#A7A9AC"/>
<path d="M362.465 267.907H336.943V268.766H362.465V267.907Z" fill="#A7A9AC"/>
<path d="M390.281 262.176H356.73V268.48H390.281V262.176Z" fill="#58595B"/>
<path d="M378.237 263.609H360.458V267.047H378.237V263.609Z" fill="#A7A9AC"/>
<path d="M377.376 263.895H361.318V267.047H377.376V263.895Z" fill="#E6E7E8"/>
<path d="M385.693 267.047C386.801 267.047 387.7 266.277 387.7 265.328C387.7 264.378 386.801 263.609 385.693 263.609C384.584 263.609 383.685 264.378 383.685 265.328C383.685 266.277 384.584 267.047 385.693 267.047Z" fill="#A7A9AC"/>
<path d="M354.722 263.322H340.098V263.895H354.722V263.322Z" fill="#A7A9AC"/>
<path d="M354.722 265.901H340.098V266.474H354.722V265.901Z" fill="#A7A9AC"/>
<path d="M354.722 266.76H340.098V267.334H354.722V266.76Z" fill="#A7A9AC"/>
<path d="M353.862 264.755H344.686V265.328H353.862V264.755Z" fill="#A7A9AC"/>
<path d="M343.826 264.755H340.098V265.328H343.826V264.755Z" fill="#A7A9AC"/>
<path d="M368.774 255.872H343.252V262.176H368.774V255.872Z" fill="#F1F2F2"/>
<path d="M369.061 255.872H361.031V262.176H369.061V255.872Z" fill="#A7A9AC"/>
<path d="M367.34 255.872H341.818V256.732H367.34V255.872Z" fill="#A7A9AC"/>
<path d="M367.34 261.603H341.818V262.462H367.34V261.603Z" fill="#A7A9AC"/>
<path d="M395.156 255.872H361.605V262.176H395.156V255.872Z" fill="#594A42"/>
<path d="M383.112 257.305H365.333V260.743H383.112V257.305Z" fill="#A7A9AC"/>
<path d="M382.251 257.591H366.193V260.743H382.251V257.591Z" fill="#E6E7E8"/>
<path d="M390.281 260.743C391.389 260.743 392.288 259.974 392.288 259.024C392.288 258.075 391.389 257.305 390.281 257.305C389.172 257.305 388.273 258.075 388.273 259.024C388.273 259.974 389.172 260.743 390.281 260.743Z" fill="#A7A9AC"/>
<path d="M359.597 257.018H344.973V257.591H359.597V257.018Z" fill="#A7A9AC"/>
<path d="M359.597 259.597H344.973V260.17H359.597V259.597Z" fill="#A7A9AC"/>
<path d="M359.597 260.457H344.973V261.03H359.597V260.457Z" fill="#A7A9AC"/>
<path d="M358.737 258.451H349.561V259.024H358.737V258.451Z" fill="#A7A9AC"/>
<path d="M348.701 258.451H344.973V259.024H348.701V258.451Z" fill="#A7A9AC"/>
<path d="M397.163 274.497L398.597 253.58H385.406L386.84 274.497H397.163Z" fill="#FAFEFF"/>
<path d="M387.987 273.351L386.553 254.726H397.45L396.016 273.351H387.987Z" fill="#B4EFF9"/>
<path d="M387.126 260.743L387.987 273.351H396.016L396.876 260.743H387.126Z" fill="#75D9EF"/>
<g opacity="0.5">
<g opacity="0.5">
<g opacity="0.5">
<path opacity="0.5" d="M388.847 270.485H391.141L389.707 257.305C389.42 255.013 387.126 254.726 387.7 257.591L388.847 270.485Z" fill="white"/>
</g>
</g>
</g>
<path d="M84.3076 279.941H76.8518V425.785H84.3076V279.941Z" fill="#414042"/>
<path d="M389.42 279.941H381.965V425.785H389.42V279.941Z" fill="#414042"/>
<path d="M404.332 275.643H61.6536V281.947H404.332V275.643Z" fill="#414042"/>
<path d="M408.06 274.497H58.2124V277.362H408.06V274.497Z" fill="#4C4C4C"/>
<path d="M192.99 273.064H119.006V274.497H192.99V273.064Z" fill="#525252"/>
<path d="M189.835 271.058C189.835 271.058 160.586 269.339 156.284 272.205C150.262 269.626 122.16 271.058 122.16 271.058V273.064H189.835V271.058Z" fill="#D6D6D6"/>
<path d="M189.835 272.205C186.968 271.918 184.1 271.918 181.519 271.631C178.652 271.345 175.784 271.345 173.203 271.345C170.336 271.345 167.468 271.345 164.887 271.345C163.454 271.345 162.02 271.345 160.586 271.631C160.012 271.631 159.152 271.918 158.579 271.918C158.005 272.205 157.145 272.205 156.571 272.491C155.424 272.491 154.851 272.205 153.99 272.205C153.417 272.205 152.557 271.918 151.983 271.918C150.549 271.631 149.116 271.631 147.682 271.631C144.814 271.631 141.947 271.631 139.079 271.631C136.211 271.631 133.344 271.918 130.476 271.918C127.608 271.918 124.741 272.205 121.873 272.491C127.608 271.918 133.344 271.631 139.079 271.345C141.947 271.345 144.814 271.345 147.682 271.345C149.116 271.345 150.549 271.345 151.983 271.631C152.557 271.631 153.417 271.918 153.99 271.918C154.564 271.918 155.424 272.205 155.998 272.491H155.711C156.285 272.205 157.145 271.918 157.718 271.631C158.292 271.345 159.152 271.345 159.726 271.345C161.159 271.058 162.593 271.058 164.027 271.058C166.895 271.058 169.762 271.058 172.343 271.058C178.652 271.345 184.1 271.918 189.835 272.205Z" fill="#A5A5AF"/>
<path d="M189.835 272.205C186.968 272.205 184.1 272.205 181.519 271.918C178.652 271.918 175.784 271.918 173.203 271.918C170.336 271.918 167.468 271.918 164.887 271.918C163.453 271.918 162.02 271.918 160.586 272.205C160.012 272.205 159.152 272.205 158.578 272.491C158.005 272.491 157.145 272.778 156.571 272.778C155.998 272.778 155.137 272.491 154.564 272.491C153.99 272.491 153.13 272.491 152.556 272.491C151.123 272.491 149.689 272.491 148.255 272.491C145.387 272.491 142.52 272.491 139.652 272.491L122.733 272.778L131.336 272.491L139.939 272.205C142.807 272.205 145.674 272.205 148.542 272.205C149.976 272.205 151.409 272.205 152.843 272.205C153.417 272.205 154.277 272.205 154.851 272.205C155.424 272.205 156.284 272.205 156.858 272.491C157.431 272.205 158.292 272.205 158.865 272.205C159.439 272.205 160.299 272.205 160.873 271.918C162.306 271.918 163.74 271.918 165.174 271.918C168.042 271.918 170.909 271.918 173.49 271.918C176.358 271.918 179.225 271.918 181.806 272.205C184.1 272.205 186.968 272.205 189.835 272.205Z" fill="#A5A5AF"/>
<path d="M298.804 273.064H224.82V274.497H298.804V273.064Z" fill="#525252"/>
<path d="M295.65 271.058C295.65 271.058 266.4 269.339 262.099 272.205C256.077 269.626 227.974 271.058 227.974 271.058V273.064H295.65V271.058Z" fill="#D6D6D6"/>
<path d="M295.65 272.205C292.782 271.918 289.915 271.918 287.334 271.632C284.466 271.345 281.599 271.345 279.018 271.345C276.15 271.345 273.283 271.345 270.702 271.345C269.268 271.345 267.834 271.345 266.4 271.632C265.827 271.632 264.967 271.918 264.393 271.918C263.819 272.205 262.959 272.205 262.386 272.491C261.812 272.205 260.952 271.918 260.378 271.918C259.805 271.918 258.945 271.632 258.371 271.632C256.937 271.345 255.503 271.345 254.07 271.345C251.202 271.345 248.334 271.345 245.467 271.345C242.599 271.345 239.732 271.632 236.864 271.632C233.996 271.632 231.129 271.918 228.261 272.205C233.996 271.632 239.732 271.345 245.467 271.058C248.334 271.058 251.202 271.058 254.07 271.058C255.503 271.058 256.937 271.058 258.371 271.345C258.945 271.345 259.805 271.632 260.378 271.632C260.952 271.632 261.812 271.918 262.386 272.205H262.099C262.672 271.918 263.533 271.632 264.106 271.345C264.68 271.058 265.54 271.058 266.114 271.058C267.547 270.772 268.981 270.772 270.415 270.772C273.283 270.772 276.15 270.772 278.731 270.772C284.466 271.345 290.201 271.918 295.65 272.205Z" fill="#A5A5AF"/>
<path d="M295.65 272.205C292.782 272.205 289.915 272.205 287.334 271.918C284.466 271.918 281.599 271.918 279.018 271.918C276.15 271.918 273.282 271.918 270.702 271.918C269.268 271.918 267.834 271.918 266.4 272.205C265.827 272.205 264.966 272.205 264.393 272.491C263.819 272.491 262.959 272.778 262.386 272.778C261.812 272.778 260.952 272.491 260.378 272.491C259.805 272.491 258.944 272.491 258.371 272.491C256.937 272.491 255.503 272.491 254.07 272.491C251.202 272.491 248.334 272.491 245.467 272.491L228.548 272.778L237.151 272.491L245.753 272.205C248.621 272.205 251.489 272.205 254.356 272.205C255.79 272.205 257.224 272.205 258.658 272.205C259.231 272.205 260.091 272.205 260.665 272.205C261.239 272.205 262.099 272.205 262.672 272.491C263.246 272.205 264.106 272.205 264.68 272.205C265.253 272.205 266.113 272.205 266.687 271.918C268.121 271.918 269.555 271.918 270.988 271.918C273.856 271.918 276.724 271.918 279.304 271.918C282.172 271.918 285.04 271.918 287.62 272.205C290.201 272.205 292.782 272.205 295.65 272.205Z" fill="#A5A5AF"/>
<path d="M334.363 399.138L335.51 406.588H341.245L343.539 406.301L341.818 394.84L334.363 399.138Z" fill="#C2D8F4"/>
<path d="M342.679 397.132C342.105 397.419 341.532 397.705 340.958 397.705C337.804 398.851 333.789 399.424 333.789 399.424C327.194 388.25 309.701 334.668 309.701 334.668C307.981 327.792 318.304 336.674 322.605 336.388C324.039 336.388 325.473 336.388 326.62 336.961C330.635 338.68 336.657 350.141 336.657 350.141C336.657 350.141 338.377 354.153 340.385 362.175C341.818 370.485 342.679 397.132 342.679 397.132Z" fill="#414042"/>
<path d="M342.679 397.132C342.105 397.419 341.532 397.705 340.958 397.705C340.671 394.553 339.811 389.109 338.951 380.8C336.944 362.175 325.186 340.972 322.319 336.101C323.753 336.101 325.186 336.101 326.333 336.674C330.348 338.393 336.37 349.855 336.37 349.855C336.37 349.855 338.091 353.866 340.098 361.889C341.819 370.485 342.679 397.132 342.679 397.132Z" fill="#4C4C4C"/>
<path d="M335.223 405.442C335.223 405.442 337.517 405.442 339.524 404.869C341.818 404.009 343.252 402.576 343.252 402.576C343.252 402.576 349.274 406.301 349.274 412.891C349.274 413.178 348.987 413.464 348.701 413.751C348.701 413.751 334.363 420.055 329.488 421.774C326.333 422.92 321.458 423.78 321.458 423.78C321.172 423.78 320.885 423.78 320.598 423.493C320.311 422.92 320.311 421.774 321.745 420.628C324.039 418.909 326.333 417.476 328.054 416.043C329.774 414.611 331.495 410.886 332.929 409.74C334.649 408.02 335.223 405.442 335.223 405.442Z" fill="#3378D3"/>
<path d="M365.046 438.106L367.053 326.359H359.598L361.605 438.106C361.605 439.252 362.465 440.112 363.326 440.112C364.186 440.112 365.046 439.252 365.046 438.106Z" fill="#4C4C4C"/>
<path d="M296.51 424.926L339.811 321.774L332.929 318.909L293.643 423.493C293.356 424.639 293.643 425.785 294.503 426.072C295.076 426.645 296.224 426.072 296.51 424.926Z" fill="#4C4C4C"/>
<path d="M430.141 424.926L386.84 321.774L393.722 318.909L433.008 423.493C433.295 424.639 433.008 425.785 432.148 426.072C431.574 426.645 430.427 426.072 430.141 424.926Z" fill="#4C4C4C"/>
<g opacity="0.3">
<g opacity="0.3">
<g opacity="0.3">
<g opacity="0.3">
<path opacity="0.3" d="M331.782 322.348L336.083 324.067L295.363 426.358C295.937 426.072 296.224 425.785 296.51 425.212L339.811 322.061L332.929 319.196L331.782 322.348Z" fill="#414042"/>
</g>
</g>
</g>
<g opacity="0.3">
<g opacity="0.3">
<g opacity="0.3">
<path opacity="0.3" d="M359.598 329.224H365.046L363.039 440.112C363.039 440.112 363.039 440.112 363.326 440.112C364.186 440.112 365.046 439.252 365.046 438.106L367.053 326.359H359.598V329.224Z" fill="#414042"/>
</g>
</g>
</g>
<g opacity="0.3">
<g opacity="0.3">
<g opacity="0.3">
<path opacity="0.3" d="M433.008 423.78L393.722 319.196L386.84 322.061L387.7 324.067L392.002 322.348L431.001 426.358C431.288 426.645 431.861 426.645 432.435 426.645C433.008 426.072 433.582 424.926 433.008 423.78Z" fill="#414042"/>
</g>
</g>
</g>
</g>
<path d="M310.848 269.626H242.599L229.122 227.219C228.548 225.214 229.982 222.921 232.276 222.921H293.643C295.076 222.921 296.51 223.781 296.797 225.214L310.848 269.626Z" fill="white"/>
<path d="M309.701 269.626H244.32L230.842 227.792C230.269 225.787 231.702 223.494 233.996 223.494H292.495C293.929 223.494 295.076 224.354 295.65 225.787L309.701 269.626Z" fill="#E1EDF9"/>
<path d="M268.694 231.517H238.871C238.298 231.517 238.011 231.231 238.011 230.658C238.011 230.085 238.298 229.798 238.871 229.798H268.694C269.268 229.798 269.555 230.085 269.555 230.658C269.555 231.231 269.268 231.517 268.694 231.517Z" fill="#C2E0F2"/>
<path d="M273.283 235.242H240.018C239.445 235.242 239.158 234.956 239.158 234.382C239.158 233.809 239.445 233.523 240.018 233.523H273.283C273.856 233.523 274.143 233.809 274.143 234.382C274.143 234.956 273.856 235.242 273.283 235.242Z" fill="#C2E0F2"/>
<path d="M270.128 238.967H241.165C240.592 238.967 240.305 238.68 240.305 238.107C240.305 237.534 240.592 237.248 241.165 237.248H270.128C270.702 237.248 270.989 237.534 270.989 238.107C270.989 238.68 270.702 238.967 270.128 238.967Z" fill="#C2E0F2"/>
<path d="M265.54 242.692H242.599C242.026 242.692 241.739 242.405 241.739 241.832C241.739 241.259 242.026 240.973 242.599 240.973H265.54C266.114 240.973 266.4 241.259 266.4 241.832C266.114 242.405 265.827 242.692 265.54 242.692Z" fill="#C2E0F2"/>
<path d="M277.01 246.417H243.746C243.173 246.417 242.886 246.13 242.886 245.557C242.886 244.984 243.173 244.698 243.746 244.698H277.01C277.584 244.698 277.871 244.984 277.871 245.557C277.871 246.13 277.297 246.417 277.01 246.417Z" fill="#C2E0F2"/>
<path d="M273.856 250.142H244.893C244.32 250.142 244.033 249.855 244.033 249.282C244.033 248.709 244.32 248.422 244.893 248.422H273.856C274.43 248.422 274.716 248.709 274.716 249.282C274.716 249.855 274.43 250.142 273.856 250.142Z" fill="#C2E0F2"/>
<path d="M280.452 257.592H247.187C246.614 257.592 246.327 257.305 246.327 256.732C246.327 256.159 246.614 255.872 247.187 255.872H280.452C281.025 255.872 281.312 256.159 281.312 256.732C281.312 257.305 281.025 257.592 280.452 257.592Z" fill="#C2E0F2"/>
<path d="M281.599 261.316H248.334C247.761 261.316 247.474 261.03 247.474 260.457C247.474 259.884 247.761 259.597 248.334 259.597H281.599C282.172 259.597 282.459 259.884 282.459 260.457C282.459 261.03 282.172 261.316 281.599 261.316Z" fill="#C2E0F2"/>
<path d="M299.378 261.316H288.768C287.907 261.316 286.76 260.743 286.474 259.597L277.584 231.231C277.01 229.798 278.158 228.365 279.878 228.365H290.488C291.348 228.365 292.496 228.938 292.782 230.085L301.672 258.451C301.959 259.884 301.098 261.316 299.378 261.316Z" fill="#C2E0F2"/>
<path d="M316.583 272.778H242.312C241.165 272.778 240.018 271.918 240.018 270.485C240.018 269.339 240.879 268.193 242.312 268.193H316.583C317.73 268.193 318.877 269.053 318.877 270.485C318.877 271.632 317.73 272.778 316.583 272.778Z" fill="white"/>
<path d="M338.09 214.039C337.517 214.039 336.943 213.752 336.37 213.179L333.789 208.881C333.502 208.308 333.502 208.022 333.502 207.449C333.502 206.876 334.076 206.589 334.362 206.302L341.245 202.578C342.105 202.004 343.252 202.578 343.826 203.437L346.12 207.735C346.406 208.308 346.406 208.595 346.406 209.168C346.406 209.741 345.833 210.027 345.546 210.314L338.664 214.039C338.664 214.039 338.377 214.039 338.09 214.039ZM342.392 203.151C342.105 203.151 342.105 203.151 341.818 203.151L334.936 206.876C334.649 206.876 334.649 207.162 334.362 207.449C334.362 207.735 334.362 208.022 334.362 208.308L336.943 212.606C337.23 213.179 337.804 213.179 338.377 212.893L345.259 209.168C345.546 209.168 345.546 208.881 345.833 208.595C345.833 208.308 345.833 208.022 345.833 207.735L343.539 203.437C343.252 203.437 342.965 203.151 342.392 203.151Z" fill="#1A1A47"/>
<path d="M309.988 259.024C309.414 259.597 309.128 260.17 309.128 260.17C309.128 260.17 305.4 257.305 304.539 257.305C303.679 257.018 301.385 257.878 300.238 257.878C299.091 257.878 298.804 257.305 298.804 257.305C298.804 257.305 294.216 259.311 293.356 259.311C292.495 259.597 292.209 259.311 292.495 258.165C292.495 257.878 292.782 257.591 293.356 257.018C295.076 255.299 298.231 252.434 299.378 251.861C300.812 251.288 302.819 250.142 304.539 250.715C306.26 251.288 311.422 255.299 311.422 255.299C311.708 256.159 310.561 257.878 309.988 259.024Z" fill="#C2D8F4"/>
<path d="M310.848 255.013L309.701 258.738C309.128 259.311 308.841 259.884 308.841 259.884C308.841 259.884 305.113 257.018 304.253 257.018C303.392 256.732 301.098 257.591 299.951 257.591C298.804 257.591 298.518 257.018 298.518 257.018C298.518 257.018 293.929 259.024 293.069 259.024C292.209 259.311 291.922 259.024 292.209 257.878C292.209 257.591 292.496 257.305 293.069 256.732C292.782 257.305 292.209 257.878 292.496 258.451C292.782 259.311 297.944 257.018 301.385 254.726C301.385 254.726 301.672 254.44 301.959 254.726L301.672 255.013C301.098 255.586 297.944 255.872 298.518 256.732C299.378 258.165 302.532 255.586 304.253 256.159C305.973 256.732 307.981 258.165 307.981 258.165C307.981 258.165 309.414 255.586 310.848 255.013Z" fill="#98C1ED"/>
<path d="M308.554 259.884C308.554 259.884 326.333 275.356 339.524 276.789C352.715 278.222 375.083 253.294 375.083 253.294C375.083 253.294 373.649 239.827 365.333 241.546C357.017 242.978 346.12 263.036 341.245 263.895C336.37 264.755 311.422 254.153 311.422 254.153C311.422 254.153 310.848 254.726 309.988 256.159C309.128 257.878 308.554 259.884 308.554 259.884Z" fill="#3378D3"/>
<path d="M368.487 183.666C363.612 178.222 356.443 177.649 350.995 178.222C343.826 179.082 337.517 183.953 335.223 190.83C334.362 193.982 334.076 197.42 335.51 201.145C340.098 213.466 344.686 221.489 349.274 223.781C350.995 224.64 354.149 224.067 357.59 222.921C358.164 222.635 358.45 222.921 358.737 223.494L360.171 226.073L372.788 223.208C372.788 223.208 371.068 219.769 370.208 216.044C372.502 214.039 377.377 193.982 368.487 183.666Z" fill="#C2D8F4"/>
<path d="M342.965 201.431C344.686 201.431 346.12 202.004 346.693 203.724C347.84 206.302 349.274 209.741 350.708 210.887C350.995 211.173 351.568 211.173 352.142 210.887C352.715 210.6 352.715 210.027 352.715 209.741C352.715 208.595 351.855 206.302 351.281 204.87C350.421 202.864 351.281 200.858 353.862 200.285C354.149 200.285 355.296 200.285 355.87 200.285C359.597 201.431 357.017 207.449 357.017 210.314C357.017 212.606 359.597 217.477 360.744 218.05C364.472 219.483 370.208 218.05 373.362 214.325C376.516 210.6 377.09 197.993 375.369 190.543C373.649 183.093 367.627 178.795 365.619 178.222C364.759 177.936 363.899 177.936 363.325 177.936C362.752 177.936 362.178 177.649 361.605 177.363C359.597 175.644 353.575 171.632 344.112 175.644C332.355 180.801 330.348 191.689 330.635 196.56C330.635 199.712 333.216 199.426 334.936 198.853C335.796 198.566 336.943 198.853 337.804 199.426C338.664 200.858 340.384 201.718 342.965 201.431Z" fill="#3378D3"/>
<path d="M359.884 228.365C359.884 228.365 358.737 227.219 359.311 226.36C359.884 225.5 365.333 220.915 371.928 221.202C373.075 221.202 374.222 221.202 375.369 223.781C376.516 226.36 376.803 228.079 376.803 228.079H359.884V228.365Z" fill="#5096E2"/>
<path d="M384.832 335.241C384.546 335.241 383.972 335.528 383.685 335.528C378.237 336.674 369.06 336.674 369.06 336.674C351.281 336.387 342.392 319.769 339.524 314.898C338.377 313.178 338.09 312.032 338.09 312.032C339.237 311.459 351.281 304.869 350.421 282.806C350.421 278.222 350.421 267.907 348.127 263.895C346.98 261.603 343.252 257.305 340.671 252.434C338.664 248.709 337.804 244.411 339.811 241.546C344.973 233.809 353.289 229.798 353.289 229.798C353.289 229.798 368.487 223.781 381.391 225.213C389.42 226.073 396.876 229.798 398.884 240.113C403.758 266.474 384.832 335.241 384.832 335.241Z" fill="#5096E2"/>
<path d="M355.296 277.076C357.59 298.852 342.679 312.605 339.238 314.898C338.09 313.179 337.804 312.032 337.804 312.032C338.951 311.459 350.134 301.717 350.134 282.806C350.134 278.222 350.134 267.907 347.84 263.895C346.693 261.603 342.965 257.305 340.385 252.434L341.245 252.147L347.267 251.001L350.421 253.58C350.708 253.58 353.862 262.749 355.296 277.076Z" fill="#3378D3"/>
<path d="M297.657 415.184C297.657 415.184 295.65 416.043 293.356 416.043C290.775 416.043 289.915 415.184 289.915 415.184V409.166L298.518 408.02L297.657 415.184Z" fill="#C2D8F4"/>
<path d="M365.046 332.09C365.046 335.815 363.899 342.118 358.164 343.837C349.561 346.416 343.252 344.984 333.216 343.264C324.9 341.832 302.819 336.961 298.804 335.528C298.231 335.241 297.657 335.815 297.944 336.388C299.951 345.843 301.385 349.855 302.532 363.895C303.679 375.642 299.091 409.167 299.091 409.167C299.091 409.167 297.657 409.453 296.224 409.74C295.65 409.74 295.077 410.026 294.503 410.026C292.209 410.026 289.628 409.74 289.628 409.74C289.628 409.74 280.739 360.456 279.591 340.686C278.444 320.628 280.165 319.196 289.341 314.898C298.518 310.6 338.951 312.319 338.951 312.319C338.951 312.605 341.245 318.909 348.127 324.64C351.855 327.505 357.59 330.657 365.046 332.09Z" fill="#4C4C4C"/>
<path d="M340.671 315.184C339.524 313.179 338.951 312.032 338.951 311.746C338.951 311.746 338.377 311.746 337.804 311.746C338.377 312.892 339.238 314.038 340.671 315.184Z" fill="#414042"/>
<path d="M359.598 330.657C358.737 333.522 357.017 336.388 353.289 337.534C344.686 340.112 338.377 338.68 328.341 336.961C320.025 335.528 297.944 330.657 293.929 329.224C293.356 328.938 292.782 329.511 293.069 330.084C295.077 339.539 296.51 343.551 297.657 357.591C298.518 366.76 298.231 396.846 297.944 409.453C298.518 409.166 299.091 409.167 299.091 409.167C299.091 409.167 303.679 375.642 302.532 363.895C301.385 349.855 299.665 345.843 297.944 336.388C297.944 335.815 298.231 335.528 298.804 335.528C302.819 336.961 324.9 341.832 333.216 343.264C343.252 344.984 349.561 346.416 358.164 343.837C363.899 342.118 365.046 335.815 365.046 332.09C363.039 331.803 361.318 331.23 359.598 330.657Z" fill="#414042"/>
<path d="M289.915 414.324C289.915 414.324 292.209 415.184 294.216 415.184C296.51 415.184 298.517 414.324 298.517 414.324C298.517 414.324 302.819 419.768 300.525 426.072C300.525 426.358 299.951 426.645 299.664 426.645H270.702C270.415 426.645 270.128 426.358 270.128 426.072C270.128 425.499 270.415 424.353 272.136 423.78C274.716 422.92 277.584 422.633 279.591 421.774C281.599 420.914 284.753 418.049 286.187 417.476C288.481 416.33 289.915 414.324 289.915 414.324Z" fill="#3378D3"/>
<path d="M276.724 269.053C276.724 269.053 274.143 268.48 272.709 268.193C272.136 268.193 271.562 267.907 271.275 267.907C270.702 267.907 270.128 267.907 269.555 267.907L255.79 269.912C255.503 269.912 254.93 269.626 254.93 269.339C254.93 268.766 254.93 268.193 255.503 267.907L256.937 266.76L260.952 263.322C262.959 261.603 264.68 261.316 267.261 261.03C267.834 261.03 269.841 261.603 270.128 261.603C272.709 262.176 273.569 262.462 275.29 262.749C275.863 263.036 276.437 263.036 276.724 263.036C277.297 263.036 277.297 263.036 277.297 263.036C278.444 266.474 276.724 269.053 276.724 269.053Z" fill="#C2D8F4"/>
<path d="M297.944 270.485C297.37 270.485 295.363 269.339 294.216 269.053C293.643 268.766 293.356 268.766 293.069 268.766C292.495 268.766 291.635 268.48 291.062 268.48H277.01C276.724 268.48 276.15 268.193 276.15 267.62C276.15 267.047 276.437 266.474 277.01 266.187L278.444 265.328C277.01 266.474 276.724 267.334 277.584 267.334C278.157 267.334 279.591 267.334 283.032 266.187C282.172 266.761 282.459 267.62 283.606 267.62C284.179 267.62 286.76 267.334 287.047 267.334C289.341 267.334 292.495 267.047 293.069 267.047C294.216 267.334 295.363 267.62 296.223 268.193C296.797 268.48 297.37 267.907 297.657 267.047C297.944 266.187 298.517 265.041 298.804 263.895C299.378 263.895 299.378 263.895 299.378 263.895C299.664 267.62 298.231 269.912 297.944 270.485Z" fill="#F4F4F4"/>
<path d="M352.715 236.961C350.995 235.815 345.26 232.663 338.091 243.838C330.922 255.013 325.186 263.322 322.605 264.755C320.025 266.187 314.003 265.041 311.709 265.041C309.414 265.041 277.011 262.463 277.011 262.463C277.011 262.463 275.577 265.901 275.29 268.766C275.29 268.766 305.113 276.503 323.466 276.503C341.818 276.503 355.87 248.709 356.443 245.271C357.303 242.405 357.017 239.54 352.715 236.961Z" fill="#5096E2"/>
<path d="M334.936 211.173C334.649 211.173 334.649 211.173 334.649 210.887C334.649 210.6 334.649 210.314 334.936 210.314L350.995 202.004C352.715 201.145 356.443 199.139 359.311 203.151C359.311 203.437 359.311 203.724 359.311 203.724C359.024 203.724 358.737 203.724 358.737 203.724C356.73 200.572 354.149 201.431 351.568 202.864L334.936 211.173C335.223 210.887 334.936 211.173 334.936 211.173Z" fill="#1A1A47"/>
<path d="M350.995 203.151L353.002 209.454C353.002 209.454 354.436 210.887 355.87 209.168C357.303 207.449 358.45 201.718 355.87 200.858C353.289 199.712 351.568 200.858 350.995 203.151Z" fill="#C2D8F4"/>
<path d="M423.832 292.262C423.832 261.03 422.971 239.254 403.472 235.815C376.516 231.231 355.583 254.44 359.884 299.139C362.465 324.64 351.855 333.522 342.965 338.393C337.23 341.545 326.046 340.972 326.046 340.972C326.046 340.972 320.885 340.399 317.444 340.112C319.451 340.972 365.619 363.608 398.31 346.989C427.273 332.09 423.832 310.6 423.832 292.262Z" fill="#E8F6F7"/>
<path d="M423.832 292.262C423.832 261.03 422.971 239.254 403.472 235.815C402.611 235.529 401.464 235.529 400.604 235.529C379.097 237.534 365.046 260.17 368.774 299.139C371.355 324.64 360.744 333.522 351.855 338.393C346.12 341.545 334.936 340.972 334.936 340.972C334.936 340.972 334.649 340.972 334.076 340.686C329.774 341.259 326.046 340.972 326.046 340.972C326.046 340.972 320.885 340.399 317.444 340.112C319.451 340.972 365.619 363.608 398.31 346.989C427.273 332.09 423.832 310.6 423.832 292.262Z" fill="#D0E0E2"/>
</g>
<defs>
<clipPath id="clip0">
<rect width="470" height="451" fill="white"/>
</clipPath>
</defs>
</svg>
