<svg xmlns="http://www.w3.org/2000/svg" viewBox="0 0 407.57 315.48"><defs><style>.cls-1{fill:#ececec;}.cls-2{fill:#fbc39d;}.cls-3{fill:#f9ac7f;}.cls-4{fill:#1d1d1b;}.cls-5{fill:#e6e6e6;}.cls-6{fill:#111110;}.cls-7{fill:#262626;}.cls-8{fill:#323232;}.cls-9{fill:#dbdbdb;}.cls-10{fill:#141414;}.cls-11{fill:#40bcdf;}.cls-12{fill:#ebf6fe;}.cls-13{fill:#fff;}.cls-14{fill:#1898ce;}</style></defs><title>Asset 1</title><g id="Layer_2" data-name="Layer 2"><g id="OBJECTS"><path class="cls-1" d="M138.77,250.55l-33.53,39.29a12.71,12.71,0,0,0,1.07,17.61h0a12.7,12.7,0,0,0,14.12,2.09c17.08-8.24,56.29-27.35,55.5-28.65-.59-1-9.4-16.19-16.5-28.46A12.71,12.71,0,0,0,138.77,250.55Z"/><path class="cls-2" d="M199.18,287.71l-76.34,24.91A13.32,13.32,0,0,1,106,304.08h0a13.32,13.32,0,0,1,8.53-16.79l76.34-24.91a13.32,13.32,0,0,1,16.79,8.53h0A13.32,13.32,0,0,1,199.18,287.71Z"/><path class="cls-1" d="M277.87,250.55l33.53,39.29a12.71,12.71,0,0,1-1.07,17.61h0a12.7,12.7,0,0,1-14.12,2.09c-17.08-8.24-56.29-27.35-55.5-28.65.59-1,9.4-16.19,16.5-28.46A12.71,12.71,0,0,1,277.87,250.55Z"/><path class="cls-2" d="M217.46,287.71l76.34,24.91a13.32,13.32,0,0,0,16.79-8.53h0a13.32,13.32,0,0,0-8.53-16.79l-76.34-24.91a13.32,13.32,0,0,0-16.79,8.53h0A13.32,13.32,0,0,0,217.46,287.71Z"/><path class="cls-1" d="M259.63,256.71l-97.15-2V242.24c0-20.4,20.74-39.42,41.14-39.42h15.32c18.12,0,40.7,19.16,40.7,37.28Z"/><path class="cls-2" d="M217.9,179.82H203.63a5.22,5.22,0,0,0-5.22,5.22v22.38a12.36,12.36,0,0,0,24.72,0V185A5.22,5.22,0,0,0,217.9,179.82Z"/><path class="cls-3" d="M198.41,202.82s1,7.28,12.36,7.28,12.36-7.28,12.36-7.28Z"/><ellipse class="cls-3" cx="175.93" cy="153.87" rx="9.25" ry="9.61"/><ellipse class="cls-3" cx="245.72" cy="153.87" rx="9.25" ry="9.61"/><path class="cls-2" d="M207.93,205.26l-.06.06c1,.08,1.92.13,2.9.13h0a33.63,33.63,0,0,0,8.52-1.1l0-.08c15.1-4,26.27-18.18,26.27-35.11V126.74c0-20-15.6-16.81-34.83-16.81h0c-19.24,0-34.83-3.19-34.83,16.81v42.43C175.93,188.18,190,203.75,207.93,205.26Z"/><path class="cls-4" d="M238.57,155.22v11.45H226.22s-3.06-8.27-15.46-8.27-15.46,8.27-15.46,8.27H183V155.22c0-4.51-4.23-6-7-6.49v20.44c0,19,14.08,34.58,32,36.08l-.06.06c1,.08,1.92.13,2.9.13s1.94-.05,2.9-.13l-.06-.06c17.91-1.5,32-17.08,32-36.08V148.73C242.81,149.22,238.57,150.71,238.57,155.22Z"/><ellipse cx="224.4" cy="144.26" rx="2.44" ry="2.54"/><rect x="219.58" y="136.17" width="10.37" height="4.07" rx="0.93" ry="0.93"/><path class="cls-5" d="M198,172.64H222.1S220,180.86,210,180.86,198,172.64,198,172.64Z"/><path class="cls-6" d="M213.61,198.6l.06.06c-1,.08-1.92.13-2.9.13s-1.94-.05-2.9-.13l.06-.06c-17.91-1.5-32-17.08-32-36.09v6.66c0,19,14.08,34.58,32,36.08l-.06.06c1,.08,1.92.13,2.9.13s1.94-.05,2.9-.13l-.06-.06c17.91-1.5,32-17.08,32-36.08v-6.66C245.6,181.52,231.52,197.1,213.61,198.6Z"/><ellipse cx="195.75" cy="144.26" rx="2.44" ry="2.54"/><rect x="190.93" y="136.17" width="10.37" height="4.07" rx="0.93" ry="0.93"/><path class="cls-4" d="M236.4,96c-9.53-1.34-24.37-1.49-35.2,7.41a8,8,0,0,0-.69.67h-8.57c-8.84,0-16,6.25-16,14v48a3,3,0,0,0,3-3.07V132s.55-9.82,9.45-9.82h43.57c9.49,0,10.64,8.6,10.75,9.71V163a3,3,0,0,0,3,3.07V118.92l.1-12.09A10.85,10.85,0,0,0,236.4,96Z"/><path class="cls-3" d="M214.14,152.26H206a3.07,3.07,0,0,0,0,6.14h8.19a3.07,3.07,0,0,0,0-6.14Z"/><rect class="cls-7" x="125" y="301.97" width="169.72" height="11.63" rx="5.81" ry="5.81"/><rect class="cls-8" x="140.62" y="226.82" width="140.33" height="86.77" rx="9.17" ry="9.17"/><path class="cls-9" d="M209.86,280.86a10.65,10.65,0,1,1,10.65-10.65A10.66,10.66,0,0,1,209.86,280.86Zm0-19.45a8.8,8.8,0,1,0,8.8,8.8A8.81,8.81,0,0,0,209.86,261.41Z"/><path class="cls-10" d="M348.77,315.48H81.48a1.88,1.88,0,0,1,0-3.77H348.77a1.88,1.88,0,1,1,0,3.77Z"/><path class="cls-10" d="M72.09,315.48H42.14a1.88,1.88,0,0,1,0-3.77H72.09a1.88,1.88,0,0,1,0,3.77Z"/><path class="cls-11" d="M389,315.48H359a1.88,1.88,0,0,1,0-3.77H389a1.88,1.88,0,0,1,0,3.77Z"/><path class="cls-11" d="M405.68,315.48h-6.41a1.88,1.88,0,0,1,0-3.77h6.41a1.88,1.88,0,0,1,0,3.77Z"/><path class="cls-11" d="M31.34,315.48H21.16a1.88,1.88,0,0,1,0-3.77H31.34a1.88,1.88,0,0,1,0,3.77Z"/><path class="cls-11" d="M4.53,315.48H1.88a1.88,1.88,0,0,1,0-3.77H4.53a1.88,1.88,0,0,1,0,3.77Z"/><path class="cls-1" d="M116.39,91.72H102a27.62,27.62,0,0,0-27.62,27.62h0A27.62,27.62,0,0,0,101.94,147h0c3.09,2.89,7.27,6.91,7.27,6.91h0l7.18-6.9h0A27.62,27.62,0,0,0,144,119.34h0A27.62,27.62,0,0,0,116.39,91.72Z"/><circle class="cls-1" cx="225.92" cy="23.51" r="23.51"/><circle class="cls-11" cx="86.06" cy="256.71" r="6.03"/><circle class="cls-11" cx="323.37" cy="29.74" r="6.23"/><path class="cls-12" d="M317.19,103.48a.92.92,0,0,1-.67-.29l-3.31-3.47H287.57a20.78,20.78,0,1,1,0-41.55h35.79a20.78,20.78,0,1,1,0,41.55h-2.69l-2.76,3.42a.92.92,0,0,1-.68.34ZM287.57,60a18.94,18.94,0,1,0,0,37.87h26a.92.92,0,0,1,.67.29l2.86,3,2.38-2.94a.92.92,0,0,1,.72-.34h3.13a18.94,18.94,0,1,0,0-37.87Z"/><path class="cls-11" d="M77.36,57.09H51.76a11.37,11.37,0,0,0,0,22.74h25.6a11.37,11.37,0,1,0,0-22.74Z"/><polygon class="cls-11" points="58.36 79.16 55.29 83.33 52.68 79.16 58.36 79.16"/><path class="cls-1" d="M344.16,119.35h-24a20.4,20.4,0,1,0,0,40.8h2.51l5.17,7.26,4.73-7.26h11.64a20.4,20.4,0,0,0,0-40.8Z"/><path class="cls-11" d="M179.83,80.5a1.41,1.41,0,0,1-1-.41l-7.78-7.78a1.41,1.41,0,1,1,2-2l7.78,7.78a1.41,1.41,0,0,1-1,2.41Z"/><path class="cls-11" d="M172.06,80.5a1.41,1.41,0,0,1-1-2.41l7.78-7.78a1.41,1.41,0,1,1,2,2l-7.78,7.78A1.41,1.41,0,0,1,172.06,80.5Z"/><path class="cls-13" d="M75,70.37H61.71a1.91,1.91,0,0,1,0-3.82H75a1.91,1.91,0,0,1,0,3.82Z"/><path class="cls-11" d="M326.5,74H285.64a2.07,2.07,0,0,1,0-4.15H326.5a2.07,2.07,0,0,1,0,4.15Z"/><path class="cls-11" d="M306.85,81H285.64a2.07,2.07,0,0,1,0-4.15h21.22a2.07,2.07,0,0,1,0,4.15Z"/><path class="cls-11" d="M318.62,88.12h-33a2.07,2.07,0,1,1,0-4.15h33a2.07,2.07,0,1,1,0,4.15Z"/><path class="cls-13" d="M55.55,70.37H53.23a1.91,1.91,0,1,1,0-3.82h2.32a1.91,1.91,0,0,1,0,3.82Z"/><path class="cls-14" d="M120.58,116.57a.54.54,0,0,0,0-.08,2.9,2.9,0,0,0-2.57-2.85,5.47,5.47,0,0,0-.69,0h-.49v-3.69a13.32,13.32,0,0,0-.16-2.51,7.51,7.51,0,0,0-2.63-4.36,8.1,8.1,0,0,0-2.56-1.41,7.46,7.46,0,0,0-2.64-.35,7.59,7.59,0,0,0-4.26,1.51,8.46,8.46,0,0,0-1.78,1.83,7.52,7.52,0,0,0-1,2,8.93,8.93,0,0,0-.36,2.8v4.17h-.84A2.92,2.92,0,0,0,98.13,115a5.25,5.25,0,0,0-.43,2.92v12a3,3,0,0,0,.78,2.12,2.93,2.93,0,0,0,2.18.92h16.77a3.62,3.62,0,0,0,1.16-.14,2.92,2.92,0,0,0,2-2.75V116.57Zm-9.12,6.65a2.41,2.41,0,0,1-1.24,2v1.95a1.08,1.08,0,0,1-2.17,0v-2a2.32,2.32,0,0,1-.92-.86,2.36,2.36,0,0,1,.25-2.71,2.32,2.32,0,0,1,2.52-.67,2.36,2.36,0,0,1,1.56,2.15h0v0A.09.09,0,0,1,111.46,123.22Zm2.48-12.7v3.1h-9.6v-4.27a10.28,10.28,0,0,1,0-1.05,6.31,6.31,0,0,1,.33-1.2,6.43,6.43,0,0,1,.62-1.06l-.1.13.23-.29-.12.16a6.34,6.34,0,0,1,.87-.87l-.16.12.29-.23-.13.1a4.81,4.81,0,0,1,3.59-1,6.65,6.65,0,0,1,1.23.34,6.42,6.42,0,0,1,1.06.62l-.13-.1.29.23-.16-.12a6.6,6.6,0,0,1,.87.87l-.12-.16.23.29L113,106a4.78,4.78,0,0,1,1,2.26C114,109,113.94,109.79,113.94,110.52Z"/><path class="cls-14" d="M235.29,31.7a8,8,0,0,0-8-8H225a8,8,0,0,0-8,8V34h18.26Z"/><circle class="cls-14" cx="226.16" cy="16.86" r="4.57"/><path class="cls-14" d="M323.35,131.31a8.19,8.19,0,0,1,7.2,4.29h16.58l3.9,3.51L346,143.39l-2.34-2.34-2.34,2.34-2.34-2.34-2.34,2.34h-6.05a8.19,8.19,0,1,1-7.2-12.08Zm-2.73,5.85A2.34,2.34,0,1,0,323,139.5,2.34,2.34,0,0,0,320.62,137.16Z"/><path class="cls-11" d="M321.86,228.49A15.52,15.52,0,0,0,306.34,213h-1.2a15.52,15.52,0,0,0-2.89,30.77l3.17,5.06,3.72-5A15.52,15.52,0,0,0,321.86,228.49Z"/><path class="cls-1" d="M305,231.07h1.48a.46.46,0,0,0,.46-.46l.91-10.26a.46.46,0,0,0-.46-.46h-3.31a.46.46,0,0,0-.46.46l.91,10.26A.46.46,0,0,0,305,231.07Z"/><circle class="cls-1" cx="305.74" cy="234.86" r="2.22"/><path class="cls-1" d="M352.41,286.16a1.41,1.41,0,0,1-1-.41L343.64,278a1.41,1.41,0,0,1,2-2l7.78,7.78a1.41,1.41,0,0,1-1,2.41Z"/><path class="cls-1" d="M344.63,286.16a1.41,1.41,0,0,1-1-2.41l7.78-7.78a1.41,1.41,0,0,1,2,2l-7.78,7.78A1.41,1.41,0,0,1,344.63,286.16Z"/></g></g></svg>