<svg width="1440" height="762" viewBox="0 0 1440 762" fill="none" xmlns="http://www.w3.org/2000/svg">
<path d="M-76 761.472C48.6404 682.262 47.5497 533.84 260.952 509.584C535.055 478.428 375.135 357.171 482.241 315.256C528.927 296.986 607.41 286.74 607.41 286.74C607.41 286.74 850.529 465.755 892.604 423.509C934.855 367.006 1043.12 105.085 1208.43 239.742C1291.73 307.595 1436.85 20.6534 1441.87 1.04933V0C1442.05 0 1442.04 0.358838 1441.87 1.04933V762L-76 761.472Z" fill="#63A2F6"/>
<path d="M4 831C122 756 120.967 615.467 323 592.5C582.5 563 431.1 448.187 532.5 408.5C576.698 391.201 651 381.5 651 381.5C651 381.5 881.167 551 921 511C961 457.5 1063.5 209.5 1220 337C1298.86 401.246 1436.25 129.556 1441 110.994V110C1441.17 110 1441.17 110.34 1441 110.994V831.5L4 831Z" fill="#3378D3"/>
<path d="M1214 506.5C1291.2 366.1 1396.83 365.333 1440 382.5V762.5H504.5C576.167 724.333 745.3 653 848.5 673C977.5 698 1117.5 682 1214 506.5Z" fill="#2060B5"/>
</svg>